<svg width="8" height="12" viewBox="0 0 8 12" fill="none" xmlns="http://www.w3.org/2000/svg">
<path d="M7.7417 5.91589C7.7417 6.03764 7.7168 6.15108 7.66699 6.25623C7.62272 6.36137 7.55355 6.46375 7.45947 6.56335L2.4209 11.5521C2.26042 11.7181 2.06396 11.8011 1.83154 11.8011C1.59359 11.8011 1.3916 11.7209 1.22559 11.5604C1.0651 11.3944 0.984863 11.1924 0.984863 10.9545C0.984863 10.7276 1.07064 10.5256 1.24219 10.3485L5.72461 5.91589L1.24219 1.48328C1.07064 1.30619 0.984863 1.10421 0.984863 0.877319C0.984863 0.639364 1.0651 0.440145 1.22559 0.279663C1.3916 0.119181 1.59359 0.0389404 1.83154 0.0389404C2.06396 0.0389404 2.26042 0.119181 2.4209 0.279663L7.45947 5.26843C7.64762 5.45658 7.7417 5.6724 7.7417 5.91589Z" fill="white" fill-opacity="0.23" style="mix-blend-mode:lighten"/>
<path d="M7.7417 5.91589C7.7417 6.03764 7.7168 6.15108 7.66699 6.25623C7.62272 6.36137 7.55355 6.46375 7.45947 6.56335L2.4209 11.5521C2.26042 11.7181 2.06396 11.8011 1.83154 11.8011C1.59359 11.8011 1.3916 11.7209 1.22559 11.5604C1.0651 11.3944 0.984863 11.1924 0.984863 10.9545C0.984863 10.7276 1.07064 10.5256 1.24219 10.3485L5.72461 5.91589L1.24219 1.48328C1.07064 1.30619 0.984863 1.10421 0.984863 0.877319C0.984863 0.639364 1.0651 0.440145 1.22559 0.279663C1.3916 0.119181 1.59359 0.0389404 1.83154 0.0389404C2.06396 0.0389404 2.26042 0.119181 2.4209 0.279663L7.45947 5.26843C7.64762 5.45658 7.7417 5.6724 7.7417 5.91589Z" fill="#545454" style="mix-blend-mode:color-dodge"/>
</svg>
