<svg width="16" height="26" viewBox="0 0 16 26" fill="none" xmlns="http://www.w3.org/2000/svg">
<path d="M0.34668 9.03076V3.24512C0.34668 2.76921 0.440755 2.35417 0.628906 2C0.822591 1.6403 1.09098 1.36084 1.43408 1.16162C1.77718 0.962402 2.17562 0.862793 2.62939 0.862793H13.3623C13.8105 0.862793 14.2062 0.962402 14.5493 1.16162C14.8979 1.36084 15.1663 1.6403 15.3545 2C15.5482 2.35417 15.645 2.76921 15.645 3.24512V9.03076H0.34668ZM3.46777 7.01367C3.63379 7.01367 3.7666 6.9611 3.86621 6.85596C3.97135 6.75081 4.02393 6.618 4.02393 6.45752V3.97559C4.02393 3.80957 3.97135 3.67399 3.86621 3.56885C3.76107 3.4637 3.62826 3.41113 3.46777 3.41113C3.30176 3.41113 3.16618 3.46647 3.06104 3.57715C2.95589 3.68229 2.90332 3.8151 2.90332 3.97559V6.45752C2.90332 6.618 2.95589 6.75081 3.06104 6.85596C3.17171 6.9611 3.30729 7.01367 3.46777 7.01367ZM0.34668 20.8262V10.3008H15.645V20.8262H0.34668ZM3.46777 15.4805C3.63379 15.4805 3.7666 15.4279 3.86621 15.3228C3.97135 15.2121 4.02393 15.0765 4.02393 14.916V12.4424C4.02393 12.2764 3.97135 12.1408 3.86621 12.0356C3.76107 11.9305 3.62826 11.8779 3.46777 11.8779C3.30176 11.8779 3.16618 11.9333 3.06104 12.0439C2.95589 12.1491 2.90332 12.2819 2.90332 12.4424V14.916C2.90332 15.082 2.95589 15.2176 3.06104 15.3228C3.17171 15.4279 3.30729 15.4805 3.46777 15.4805ZM0.34668 22.0879H15.645V22.7769C15.645 23.2528 15.5482 23.6678 15.3545 24.022C15.1663 24.3817 14.8979 24.6611 14.5493 24.8604C14.2062 25.0596 13.8105 25.1592 13.3623 25.1592H2.62939C2.17562 25.1592 1.77718 25.0596 1.43408 24.8604C1.09098 24.6611 0.822591 24.3817 0.628906 24.022C0.440755 23.6678 0.34668 23.2528 0.34668 22.7769V22.0879Z" fill="#B3B3B3"/>
</svg>
