<svg width="16" height="17" viewBox="0 0 16 17" fill="none" xmlns="http://www.w3.org/2000/svg">
<path d="M0.234863 8.30176C0.234863 8.01725 0.336914 7.77295 0.541016 7.56885C0.745117 7.35856 0.989421 7.25342 1.27393 7.25342H6.96094V1.57568C6.96094 1.29118 7.06299 1.04688 7.26709 0.842773C7.47119 0.638672 7.71549 0.536621 8 0.536621C8.29069 0.536621 8.53809 0.638672 8.74219 0.842773C8.94629 1.04688 9.04834 1.29118 9.04834 1.57568V7.25342H14.7261C15.0106 7.25342 15.2549 7.35856 15.459 7.56885C15.6631 7.77295 15.7651 8.01725 15.7651 8.30176C15.7651 8.59245 15.6631 8.83984 15.459 9.04395C15.2549 9.24186 15.0106 9.34082 14.7261 9.34082H9.04834V15.0371C9.04834 15.3154 8.94629 15.5566 8.74219 15.7607C8.53809 15.9648 8.29069 16.0669 8 16.0669C7.71549 16.0669 7.47119 15.9648 7.26709 15.7607C7.06299 15.5566 6.96094 15.3154 6.96094 15.0371V9.34082H1.27393C0.989421 9.34082 0.745117 9.24186 0.541016 9.04395C0.336914 8.83984 0.234863 8.59245 0.234863 8.30176Z" fill="white" fill-opacity="0.96"/>
</svg>
