<svg width="18" height="17" viewBox="0 0 18 17" fill="none" xmlns="http://www.w3.org/2000/svg">
<path d="M0.798828 6.99609C0.798828 6.06641 0.973145 5.19482 1.32178 4.38135C1.67594 3.56234 2.16292 2.84294 2.78271 2.22314C3.40251 1.59782 4.11914 1.11084 4.93262 0.762207C5.75163 0.413574 6.62598 0.239258 7.55566 0.239258C8.49089 0.239258 9.36523 0.413574 10.1787 0.762207C10.9977 1.11084 11.7171 1.59782 12.3369 2.22314C12.9567 2.84294 13.4409 3.56234 13.7896 4.38135C14.1437 5.19482 14.3208 6.06641 14.3208 6.99609C14.3208 7.72656 14.2074 8.42106 13.9805 9.07959C13.7591 9.73812 13.452 10.3385 13.0591 10.8809L16.8442 14.6826C16.9604 14.7933 17.0462 14.9233 17.1016 15.0728C17.1624 15.2222 17.1929 15.3799 17.1929 15.5459C17.1929 15.7783 17.1403 15.9886 17.0352 16.1768C16.93 16.3649 16.7861 16.5116 16.6035 16.6167C16.4209 16.7274 16.2106 16.7827 15.9727 16.7827C15.8066 16.7827 15.6462 16.7523 15.4912 16.6914C15.3418 16.6361 15.2062 16.5475 15.0845 16.4258L11.2744 12.6157C10.7432 12.9699 10.1621 13.2493 9.53125 13.4541C8.90592 13.6533 8.2474 13.7529 7.55566 13.7529C6.62598 13.7529 5.75163 13.5786 4.93262 13.23C4.11914 12.8813 3.40251 12.3971 2.78271 11.7773C2.16292 11.1576 1.67594 10.4409 1.32178 9.62744C0.973145 8.80843 0.798828 7.93132 0.798828 6.99609ZM2.56689 6.99609C2.56689 7.68783 2.69417 8.33529 2.94873 8.93848C3.20882 9.54167 3.56852 10.0729 4.02783 10.5322C4.48714 10.986 5.01839 11.3429 5.62158 11.603C6.22477 11.8631 6.86947 11.9932 7.55566 11.9932C8.2474 11.9932 8.89486 11.8631 9.49805 11.603C10.1012 11.3429 10.6297 10.986 11.0835 10.5322C11.5428 10.0729 11.9025 9.54167 12.1626 8.93848C12.4227 8.33529 12.5527 7.68783 12.5527 6.99609C12.5527 6.3099 12.4227 5.6652 12.1626 5.06201C11.9025 4.45882 11.5428 3.92757 11.0835 3.46826C10.6297 3.00895 10.1012 2.65202 9.49805 2.39746C8.89486 2.13737 8.2474 2.00732 7.55566 2.00732C6.86947 2.00732 6.22477 2.13737 5.62158 2.39746C5.01839 2.65202 4.48714 3.00895 4.02783 3.46826C3.56852 3.92757 3.20882 4.45882 2.94873 5.06201C2.69417 5.6652 2.56689 6.3099 2.56689 6.99609Z" fill="white" fill-opacity="0.23" style="mix-blend-mode:lighten"/>
<path d="M0.798828 6.99609C0.798828 6.06641 0.973145 5.19482 1.32178 4.38135C1.67594 3.56234 2.16292 2.84294 2.78271 2.22314C3.40251 1.59782 4.11914 1.11084 4.93262 0.762207C5.75163 0.413574 6.62598 0.239258 7.55566 0.239258C8.49089 0.239258 9.36523 0.413574 10.1787 0.762207C10.9977 1.11084 11.7171 1.59782 12.3369 2.22314C12.9567 2.84294 13.4409 3.56234 13.7896 4.38135C14.1437 5.19482 14.3208 6.06641 14.3208 6.99609C14.3208 7.72656 14.2074 8.42106 13.9805 9.07959C13.7591 9.73812 13.452 10.3385 13.0591 10.8809L16.8442 14.6826C16.9604 14.7933 17.0462 14.9233 17.1016 15.0728C17.1624 15.2222 17.1929 15.3799 17.1929 15.5459C17.1929 15.7783 17.1403 15.9886 17.0352 16.1768C16.93 16.3649 16.7861 16.5116 16.6035 16.6167C16.4209 16.7274 16.2106 16.7827 15.9727 16.7827C15.8066 16.7827 15.6462 16.7523 15.4912 16.6914C15.3418 16.6361 15.2062 16.5475 15.0845 16.4258L11.2744 12.6157C10.7432 12.9699 10.1621 13.2493 9.53125 13.4541C8.90592 13.6533 8.2474 13.7529 7.55566 13.7529C6.62598 13.7529 5.75163 13.5786 4.93262 13.23C4.11914 12.8813 3.40251 12.3971 2.78271 11.7773C2.16292 11.1576 1.67594 10.4409 1.32178 9.62744C0.973145 8.80843 0.798828 7.93132 0.798828 6.99609ZM2.56689 6.99609C2.56689 7.68783 2.69417 8.33529 2.94873 8.93848C3.20882 9.54167 3.56852 10.0729 4.02783 10.5322C4.48714 10.986 5.01839 11.3429 5.62158 11.603C6.22477 11.8631 6.86947 11.9932 7.55566 11.9932C8.2474 11.9932 8.89486 11.8631 9.49805 11.603C10.1012 11.3429 10.6297 10.986 11.0835 10.5322C11.5428 10.0729 11.9025 9.54167 12.1626 8.93848C12.4227 8.33529 12.5527 7.68783 12.5527 6.99609C12.5527 6.3099 12.4227 5.6652 12.1626 5.06201C11.9025 4.45882 11.5428 3.92757 11.0835 3.46826C10.6297 3.00895 10.1012 2.65202 9.49805 2.39746C8.89486 2.13737 8.2474 2.00732 7.55566 2.00732C6.86947 2.00732 6.22477 2.13737 5.62158 2.39746C5.01839 2.65202 4.48714 3.00895 4.02783 3.46826C3.56852 3.92757 3.20882 4.45882 2.94873 5.06201C2.69417 5.6652 2.56689 6.3099 2.56689 6.99609Z" fill="#545454" style="mix-blend-mode:color-dodge"/>
</svg>
