<svg width="20" height="22" viewBox="0 0 20 22" fill="none" xmlns="http://www.w3.org/2000/svg">
<path d="M10 21.8726C9.77865 21.8726 9.5988 21.8006 9.46045 21.6567C9.3221 21.5129 9.25293 21.3192 9.25293 21.0757V18.6519L7.40186 19.7393C7.2137 19.8665 7.02832 19.9191 6.8457 19.897C6.66309 19.8748 6.5109 19.7697 6.38916 19.5815C6.29508 19.4155 6.27295 19.2412 6.32275 19.0586C6.37256 18.876 6.4943 18.7266 6.68799 18.6104L9.25293 17.1245V15.6553L9.45215 11.978L6.34766 13.9868L5.06934 14.7173L5.05273 17.6641C5.05273 17.8965 4.98633 18.0791 4.85352 18.2119C4.7207 18.3503 4.56022 18.4167 4.37207 18.4111C4.15072 18.4056 3.9847 18.3254 3.87402 18.1704C3.76335 18.021 3.71354 17.8328 3.72461 17.606L3.74951 15.4893L1.64111 16.6929C1.43636 16.8091 1.23714 16.8478 1.04346 16.8091C0.855306 16.7648 0.703125 16.6431 0.586914 16.4438C0.470703 16.2446 0.443034 16.0509 0.503906 15.8628C0.564779 15.6691 0.694824 15.5142 0.894043 15.3979L2.99414 14.186L1.13477 13.1235C0.930013 13.0239 0.791667 12.8911 0.719727 12.7251C0.65332 12.5591 0.672689 12.3709 0.777832 12.1606C0.866374 11.9946 1.00195 11.8895 1.18457 11.8452C1.36719 11.7954 1.55811 11.8258 1.75732 11.9365L4.31396 13.4141L5.60059 12.6836L8.9292 11.0068L5.59229 9.33008L4.32227 8.59131L1.76562 10.0605C1.56087 10.1768 1.36442 10.21 1.17627 10.1602C0.993652 10.1104 0.855306 10.0024 0.76123 9.83643C0.661621 9.63167 0.647786 9.44629 0.719727 9.28027C0.797201 9.11426 0.935547 8.97591 1.13477 8.86523L2.98584 7.81934L0.885742 6.61572C0.686523 6.49951 0.556478 6.34733 0.495605 6.15918C0.440267 5.96549 0.470703 5.76628 0.586914 5.56152C0.697591 5.36784 0.849772 5.24886 1.04346 5.20459C1.23714 5.16032 1.43636 5.19629 1.64111 5.3125L3.74951 6.52441L3.73291 4.39111C3.72184 4.16423 3.76888 3.97607 3.87402 3.82666C3.9847 3.67725 4.15072 3.59977 4.37207 3.59424C4.56576 3.5887 4.72624 3.65234 4.85352 3.78516C4.98633 3.91797 5.05273 4.10059 5.05273 4.33301L5.06104 7.28809L6.34766 8.02686L9.45215 10.0356L9.25293 6.3501V4.87256L6.68799 3.38672C6.4943 3.27051 6.37256 3.12109 6.32275 2.93848C6.27295 2.75586 6.29508 2.58154 6.38916 2.41553C6.5109 2.22738 6.66309 2.125 6.8457 2.1084C7.02832 2.08626 7.2137 2.13607 7.40186 2.25781L9.25293 3.34521V0.921387C9.25293 0.683431 9.3221 0.492513 9.46045 0.348633C9.5988 0.199219 9.77865 0.124512 10 0.124512C10.2324 0.124512 10.415 0.199219 10.5479 0.348633C10.6807 0.492513 10.7471 0.683431 10.7471 0.921387V3.33691L12.5732 2.25781C12.7614 2.13607 12.9495 2.08626 13.1377 2.1084C13.3258 2.125 13.4808 2.22738 13.6025 2.41553C13.7021 2.58154 13.7271 2.75586 13.6772 2.93848C13.6274 3.12109 13.5029 3.27051 13.3037 3.38672L10.7471 4.86426V6.3501L10.5562 10.0356L13.6523 8.02686L14.9307 7.28809L14.939 4.33301C14.9445 4.10059 15.0109 3.91797 15.1382 3.78516C15.271 3.65234 15.4342 3.5887 15.6279 3.59424C15.8493 3.59977 16.0153 3.67725 16.126 3.82666C16.2367 3.97607 16.2865 4.16423 16.2754 4.39111L16.2505 6.52441L18.3672 5.3125C18.5719 5.19076 18.7684 5.15479 18.9565 5.20459C19.1502 5.24886 19.3024 5.36784 19.4131 5.56152C19.5293 5.76628 19.5597 5.96273 19.5044 6.15088C19.4491 6.33903 19.3162 6.49398 19.106 6.61572L17.0142 7.81934L18.8652 8.86523C19.0589 8.97591 19.1945 9.11702 19.272 9.28857C19.3494 9.46012 19.3411 9.63997 19.2471 9.82812C19.1475 9.99967 19.0036 10.1104 18.8154 10.1602C18.6273 10.21 18.4336 10.1768 18.2344 10.0605L15.686 8.58301L14.4077 9.33008L11.0708 11.0068L14.3994 12.6836L15.6777 13.4141L18.251 11.9365C18.4502 11.8258 18.6383 11.7954 18.8154 11.8452C18.9925 11.895 19.1309 12.0057 19.2305 12.1772C19.3356 12.3654 19.3494 12.5452 19.272 12.7168C19.2 12.8883 19.0672 13.0239 18.8735 13.1235L17.0059 14.186L19.106 15.3979C19.3052 15.5086 19.4325 15.6608 19.4878 15.8545C19.5431 16.0482 19.5182 16.2446 19.4131 16.4438C19.3024 16.6375 19.1502 16.7593 18.9565 16.8091C18.7629 16.8534 18.5636 16.8146 18.3589 16.6929L16.2505 15.4727L16.2754 17.606C16.2865 17.8328 16.2367 18.021 16.126 18.1704C16.0208 18.3254 15.8576 18.4056 15.6362 18.4111C15.4425 18.4167 15.2793 18.3503 15.1465 18.2119C15.0137 18.0791 14.9445 17.8965 14.939 17.6641V14.7173L13.6523 13.9868L10.5562 11.978L10.7471 15.6553V17.1328L13.3037 18.6104C13.5029 18.7266 13.6274 18.876 13.6772 19.0586C13.7271 19.2412 13.7021 19.4155 13.6025 19.5815C13.4808 19.7697 13.3258 19.8748 13.1377 19.897C12.9495 19.9191 12.7614 19.8665 12.5732 19.7393L10.7471 18.6602V21.0757C10.7471 21.3192 10.6807 21.5129 10.5479 21.6567C10.415 21.8006 10.2324 21.8726 10 21.8726Z" fill="#B3B3B3"/>
</svg>
